<svg width="4000" height="4000" version="1.1" xmlns="http://www.w3.org/2000/svg" desc="Created with imagetracer.js version 1.2.6" ><path fill="rgb(230,230,230)" stroke="rgb(230,230,230)" stroke-width="1" opacity="1" d="M 0 0 L 4000 0 L 4000 4000 L 3826.5 4000 L 3826 3998.5 L 3815 3956.5 L 3790 3891.5 L 3789 3885.5 L 3779 3858.5 L 3776 3843.5 L 3774 3839.5 L 3774 3835.5 L 3764 3806.5 L 3764 3803.5 L 3751 3769.5 L 3749 3767.5 L 3749 3764.5 L 3730 3726.5 Q 3652.3 3589.7 3544.5 3483 Q 3504.4 3443.6 3457.5 3411 L 3423.5 3390 L 3358.5 3356 L 3286.5 3324 L 3222.5 3298 L 3131.5 3267 L 3052.5 3236 L 2958.5 3194 L 2870.5 3149 Q 2783.5 3101.5 2704.5 3046 L 2627.5 2988 L 2595 2955.5 Q 2541.1 2896.9 2502 2823.5 L 2492 2803.5 L 2489 2794.5 L 2486 2790.5 L 2470 2750.5 L 2454 2698.5 L 2446 2661.5 L 2446 2659.5 L 2443 2636.5 L 2442 2635.5 L 2442 2626.5 L 2441 2625.5 L 2441 2623.5 L 2440 2615.5 L 2440 2613.5 L 2439 2587.5 L 2438 2586.5 L 2438 2584.5 L 2438 2559.5 L 2439 2558.5 L 2438 2556.5 L 2439 2553.5 L 2439 2534.5 L 2441 2526.5 L 2440 2522.5 L 2442 2514.5 L 2442 2512.5 Q 2440.9 2503.9 2444 2499.5 L 2443 2497.5 L 2447 2480.5 L 2447 2478.5 Q 2446.3 2472.8 2449 2470.5 L 2449 2468.5 L 2449 2457.5 L 2451 2449.5 L 2451 2447.5 L 2452 2442.5 L 2451 2440.5 L 2453 2435.5 L 2452 2433.5 L 2454 2429.5 L 2453 2427.5 L 2465 2378.5 L 2474 2352.5 L 2485 2326.5 L 2511 2276.5 L 2545 2223 Q 2549.3 2226 2558.5 2225 Q 2571.7 2218.7 2579.5 2207 L 2599.5 2194 L 2626.5 2167 L 2642 2154.5 L 2644 2149.5 L 2660 2129.5 L 2665 2117.5 L 2664 2114.5 Q 2666.5 2113 2665 2107.5 Q 2662.5 2106 2664 2100.5 L 2668 2091.5 L 2670 2075.5 L 2679 2057.5 L 2679 2049.5 L 2719 1992.5 L 2722 1984.5 L 2724 1965.5 L 2726 1962.5 L 2726 1960.5 L 2734 1934.5 L 2758 1893.5 L 2765 1874.5 L 2766 1869.5 L 2766 1826.5 L 2767 1825.5 L 2766 1821.5 L 2766 1817.5 L 2765 1808.5 Q 2761.4 1799.6 2754.5 1794 L 2746.5 1788 L 2735.5 1785 L 2731.5 1786 L 2717.5 1782 L 2713 1785.5 L 2707 1770.5 L 2707 1768.5 Q 2708.2 1763.8 2706 1762.5 L 2706 1760.5 L 2707 1731.5 L 2713 1710.5 L 2713 1694.5 L 2714 1693.5 L 2713 1691.5 L 2725 1657.5 L 2735 1622.5 L 2736 1613.5 L 2740 1600.5 L 2745 1575.5 L 2745 1570.5 L 2747 1565.5 L 2747 1563.5 L 2748 1551.5 L 2750 1546.5 L 2749 1544.5 L 2750 1543.5 L 2752 1518.5 L 2754 1509.5 L 2754 1505.5 Q 2752.2 1499.2 2755 1497.5 L 2754 1494.5 L 2755 1492.5 L 2755 1490.5 L 2755 1475.5 L 2756 1474.5 L 2755 1473.5 L 2755 1446.5 L 2755 1444.5 L 2754 1414.5 L 2753 1413.5 L 2753 1409.5 L 2751 1390.5 L 2751 1388.5 L 2750 1382.5 L 2750 1380.5 L 2747 1362.5 L 2747 1360.5 L 2746 1357.5 L 2746 1355.5 L 2745 1351.5 L 2745 1349.5 L 2740 1323.5 L 2731 1292.5 L 2731 1288.5 L 2729 1285.5 L 2725 1269.5 L 2718 1250.5 Q 2696.7 1194.3 2668 1145.5 Q 2602.2 1036.3 2511.5 952 Q 2460.2 903.3 2402.5 861 L 2372.5 847 L 2338.5 835 L 2334.5 835 L 2331.5 833 L 2304.5 825 L 2273.5 812 Q 2244.1 797.4 2223.5 774 L 2188.5 757 L 2142.5 739 L 2115.5 732 L 2112.5 730 L 2087.5 725 L 2083.5 723 L 2081.5 723 L 2048.5 717 L 2029.5 715 L 2028.5 714 L 2026.5 715 L 2025.5 714 L 2016.5 714 L 2007.5 712 L 2005.5 713 L 2004.5 712 L 1989.5 712 L 1988.5 711 L 1922.5 711 Q 1921.2 713.3 1916.5 712 L 1914.5 712 L 1894.5 713 L 1892.5 714 L 1890.5 714 Q 1885 712.5 1883.5 715 L 1881.5 715 Q 1876 713.5 1874.5 716 L 1872.5 716 L 1852.5 718 L 1834.5 722 L 1828.5 722 L 1823.5 724 L 1821.5 724 L 1818.5 725 L 1816.5 725 L 1795.5 729 L 1791.5 731 L 1789.5 731 L 1750.5 741 L 1747.5 743 L 1744.5 743 L 1708.5 756 L 1705.5 756 L 1650.5 779 L 1588.5 811 Q 1541.7 838.2 1500.5 871 L 1430.5 930 L 1392 968.5 Q 1360.1 1003.1 1333 1042.5 L 1313 1073.5 L 1284 1125.5 L 1265 1166.5 L 1252 1198.5 L 1252 1201.5 L 1250 1203.5 L 1248 1212.5 L 1245 1217.5 L 1245 1220.5 L 1230 1265.5 L 1230 1269.5 L 1219 1308.5 L 1219 1310.5 L 1211 1354.5 L 1209 1359.5 L 1210 1361.5 L 1204 1395.5 L 1204 1397.5 L 1203 1415.5 L 1201 1425.5 L 1201 1427.5 Q 1202.7 1433.8 1200 1435.5 L 1201 1439.5 L 1200 1440.5 L 1200 1455.5 L 1199 1456.5 L 1199 1468.5 L 1198 1469.5 L 1199 1470.5 L 1199 1479.5 L 1199 1481.5 L 1198 1484.5 L 1198 1522.5 L 1199 1523.5 L 1199 1536.5 L 1199 1538.5 L 1200 1555.5 L 1199 1557.5 L 1200 1558.5 L 1202 1582.5 L 1202 1584.5 L 1203 1600.5 L 1204 1601.5 L 1204 1603.5 L 1205 1611.5 L 1205 1613.5 L 1206 1619.5 L 1206 1621.5 L 1207 1626.5 L 1207 1628.5 L 1209 1646.5 L 1212 1658.5 L 1212 1660.5 L 1215 1674.5 L 1215 1678.5 Q 1216.3 1683.3 1214 1684.5 L 1216 1694.5 L 1222 1705.5 L 1223 1716.5 L 1225 1723.5 L 1232 1733.5 L 1236 1747.5 L 1246 1760.5 Q 1245.4 1765.1 1248 1766.5 L 1248 1800.5 L 1249 1802.5 L 1249 1804.5 L 1248 1813.5 L 1245 1820.5 L 1225 1842.5 L 1222 1848.5 L 1221 1861.5 L 1220 1862.5 L 1221 1865.5 L 1221 1867.5 L 1222 1889.5 L 1221 1890.5 L 1221 1906.5 L 1220 1907.5 L 1221 1910.5 Q 1219.5 1916 1222 1917.5 L 1222 1919.5 L 1226 1931.5 L 1238 1949.5 L 1252 1977.5 L 1264 2007.5 L 1266 2019.5 L 1266 2021.5 L 1267 2027.5 Q 1275 2034.5 1279 2045.5 Q 1282.9 2053.6 1284 2064.5 L 1294 2079.5 L 1296 2094.5 L 1296 2096.5 L 1296 2101.5 L 1305 2119.5 L 1308 2136.5 L 1314 2143.5 L 1314 2145.5 L 1314 2147.5 L 1315 2153.5 L 1324 2164.5 L 1331 2177.5 L 1362 2216.5 L 1372 2233.5 L 1376.5 2238 L 1393.5 2249 L 1407.5 2256 L 1413 2261.5 Q 1420.7 2274.3 1425 2290.5 L 1437 2314.5 L 1507 2441.5 L 1538 2506.5 L 1548 2531.5 L 1548 2534.5 L 1551 2539.5 L 1563 2578.5 L 1569 2605.5 L 1569 2611.5 L 1573 2632.5 L 1573 2642.5 L 1574 2643.5 L 1574 2645.5 L 1573 2647.5 L 1574 2648.5 L 1574 2658.5 L 1575 2659.5 L 1575 2673.5 L 1575 2677.5 L 1574 2679.5 L 1574 2690.5 L 1573 2691.5 L 1574 2695.5 L 1572 2701.5 L 1573 2703.5 L 1570 2714.5 L 1570 2716.5 L 1567 2736.5 Q 1564.2 2739.2 1565 2745.5 L 1563 2748.5 L 1563 2750.5 L 1559 2767.5 L 1542 2814.5 L 1516 2865.5 Q 1481.5 2922.5 1434.5 2967 Q 1400.1 3000.1 1360.5 3028 Q 1301.1 3069.6 1232.5 3102 L 1185.5 3123 L 1180.5 3124 L 1178.5 3126 L 1110.5 3152 L 1016.5 3182 L 933.5 3204 L 931.5 3204 L 899.5 3212 L 897.5 3212 L 868.5 3219 L 866.5 3219 L 852.5 3222 L 830.5 3232 L 825.5 3233 L 823.5 3235 L 803.5 3243 L 753.5 3267 L 709.5 3291 L 649.5 3328 Q 543 3398.5 457 3489.5 Q 361.8 3590.3 291 3715.5 L 262 3770.5 L 255 3787.5 L 235 3843.5 L 224 3879.5 L 218 3904.5 L 216 3907.5 L 216 3909.5 L 208 3941.5 L 206 3954.5 L 204 3958.5 L 198 3992.5 L 196 3996.5 L 196 3998.5 L 195.5 4000 L 0 4000 L 0 0 Z " /><path fill="rgb(179,179,179)" stroke="rgb(179,179,179)" stroke-width="1" opacity="1" d="M 1915.5 711 Q 1916.7 713.3 1921.5 712 L 1922.5 711 L 1988.5 711 L 1989.5 712 L 2004.5 712 L 2006.5 713 L 2008.5 713 L 2025.5 714 L 2027.5 715 L 2029.5 715 L 2067.5 720 L 2082.5 724 L 2084.5 724 L 2112.5 730 L 2115.5 732 L 2142.5 739 L 2188.5 757 L 2223.5 774 Q 2244.1 797.4 2273.5 812 L 2304.5 825 L 2313.5 827 L 2334.5 835 L 2338.5 835 L 2372.5 847 L 2402.5 861 Q 2483 920 2551 991.5 Q 2592.9 1035.6 2629 1085.5 Q 2658.6 1126.4 2683 1172.5 L 2702 1211.5 L 2725 1269.5 L 2727 1279.5 L 2731 1288.5 L 2731 1292.5 L 2735 1303.5 L 2742 1332.5 L 2744 1346.5 L 2746 1350.5 L 2746 1352.5 L 2747 1356.5 L 2747 1358.5 L 2748 1361.5 L 2747 1363.5 L 2751 1381.5 L 2750 1383.5 L 2752 1389.5 L 2751 1392.5 L 2752 1393.5 L 2752 1401.5 L 2754 1410.5 L 2754 1414.5 L 2754 1429.5 L 2755 1430.5 L 2755 1444.5 L 2756 1445.5 L 2755 1446.5 L 2755 1473.5 L 2755 1475.5 L 2755 1490.5 L 2754 1491.5 L 2754 1493.5 L 2755 1495.5 L 2754 1498.5 Q 2755.8 1504.8 2753 1506.5 L 2753 1510.5 L 2751 1536.5 L 2749 1545.5 L 2749 1547.5 L 2746 1564.5 L 2746 1566.5 L 2735 1622.5 L 2725 1657.5 L 2713 1692.5 L 2713 1694.5 L 2713 1710.5 L 2707 1731.5 L 2706 1760.5 L 2707 1763.5 Q 2705.7 1768.3 2708 1769.5 L 2708 1771.5 L 2713.5 1786 L 2717.5 1782 L 2719.5 1782 Q 2725.2 1785.8 2734.5 1786 L 2736.5 1786 L 2746.5 1788 L 2758 1797.5 L 2765 1808.5 L 2767 1818.5 L 2766 1821.5 L 2767 1825.5 L 2766 1826.5 L 2766 1869.5 L 2765 1874.5 L 2758 1893.5 L 2734 1934.5 L 2732 1939.5 L 2732 1943.5 L 2725 1961.5 L 2725 1963.5 Q 2722 1972.5 2722 1984.5 L 2719 1992.5 L 2679 2049.5 L 2678 2060.5 L 2670 2075.5 L 2668 2091.5 L 2664 2100.5 L 2664 2106.5 Q 2666.5 2108 2665 2113.5 L 2664 2116.5 L 2664 2118.5 L 2663 2123.5 L 2656 2135.5 L 2635.5 2161 L 2626.5 2167 L 2599.5 2194 L 2579.5 2207 L 2565.5 2221 L 2558.5 2225 L 2550.5 2225 L 2545 2223 L 2511 2276.5 L 2485 2326.5 L 2474 2352.5 L 2465 2378.5 L 2453 2428.5 L 2453 2430.5 L 2452 2434.5 L 2452 2436.5 L 2451 2441.5 L 2451 2443.5 L 2450 2448.5 L 2450 2450.5 L 2449 2468.5 L 2448 2469.5 L 2448 2471.5 L 2446 2479.5 L 2446 2481.5 L 2443 2498.5 L 2443 2500.5 L 2442 2512.5 L 2441 2513.5 L 2441 2515.5 L 2440 2525.5 L 2440 2527.5 L 2439 2553.5 L 2438 2554.5 L 2438 2556.5 L 2439 2558.5 L 2438 2559.5 L 2438 2584.5 L 2439 2587.5 L 2439 2604.5 L 2441 2614.5 L 2440 2617.5 L 2442 2624.5 L 2442 2626.5 L 2442 2635.5 L 2443 2636.5 L 2444 2649.5 L 2447 2660.5 L 2447 2662.5 L 2454 2698.5 L 2470 2750.5 L 2486 2790.5 L 2509 2836.5 L 2530 2871.5 L 2562 2916.5 Q 2591.9 2955.1 2627.5 2988 Q 2685.4 3034.6 2748.5 3076 Q 2821.3 3123.7 2900.5 3165 L 2975.5 3202 L 3052.5 3236 L 3153.5 3275 L 3209.5 3293 L 3286.5 3324 L 3358.5 3356 L 3414.5 3385 Q 3453.8 3406.2 3487.5 3433 Q 3527.1 3464.4 3562 3500.5 Q 3664.3 3606.7 3738 3741.5 L 3746 3760.5 L 3749 3764.5 L 3749 3767.5 L 3751 3769.5 L 3764 3803.5 L 3764 3806.5 L 3771 3824.5 L 3771 3828.5 L 3774 3835.5 L 3774 3839.5 L 3776 3843.5 L 3779 3858.5 L 3789 3885.5 L 3790 3891.5 L 3815 3956.5 L 3826 4000 L 196.5 4000 L 196 3998.5 L 197 3995.5 L 204 3958.5 L 206 3954.5 L 212 3924.5 L 217 3908.5 L 217 3906.5 L 235 3843.5 L 261 3772.5 L 306 3689.5 Q 387.5 3553 499.5 3447 Q 580.3 3370.3 677.5 3310 L 734.5 3277 L 769.5 3259 L 823.5 3235 L 825.5 3233 L 830.5 3232 L 852.5 3222 L 858.5 3220 L 863.5 3220 L 867.5 3218 L 869.5 3218 L 886.5 3215 L 898.5 3211 L 900.5 3211 L 908.5 3210 L 924.5 3205 L 929.5 3205 L 932.5 3203 L 934.5 3203 L 961.5 3197 L 965.5 3195 L 991.5 3189 L 994.5 3187 L 998.5 3187 L 1016.5 3182 L 1110.5 3152 L 1178.5 3126 L 1180.5 3124 L 1185.5 3123 L 1232.5 3102 Q 1301.1 3069.6 1360.5 3028 Q 1408.6 2994.1 1449 2952.5 Q 1492.4 2907.9 1524 2851.5 L 1537 2825.5 L 1550 2794.5 L 1564 2749.5 L 1564 2747.5 L 1571 2715.5 L 1571 2713.5 L 1573 2702.5 L 1573 2700.5 L 1574 2692.5 L 1574 2690.5 L 1574 2679.5 L 1575 2677.5 L 1575 2673.5 L 1575 2659.5 L 1574 2658.5 L 1574 2648.5 L 1573 2647.5 L 1574 2645.5 L 1573 2642.5 L 1572 2624.5 L 1563 2578.5 L 1551 2539.5 L 1548 2534.5 L 1548 2531.5 L 1538 2506.5 L 1507 2441.5 L 1437 2314.5 L 1425 2290.5 L 1415 2264.5 L 1407.5 2256 L 1380.5 2241 L 1372 2233.5 L 1365 2220.5 L 1331 2177.5 L 1324 2164.5 L 1315 2153.5 L 1313 2146.5 L 1314 2143.5 L 1308 2136.5 L 1305 2119.5 L 1296 2101.5 Q 1297.2 2096.7 1295 2095.5 L 1296 2093.5 L 1295 2092.5 Q 1296.3 2084.2 1294 2079.5 L 1284 2064.5 Q 1282.9 2053.6 1279 2045.5 Q 1275 2034.5 1267 2027.5 L 1265 2020.5 L 1266 2018.5 L 1264 2007.5 L 1252 1977.5 L 1238 1949.5 L 1226 1931.5 L 1221 1918.5 L 1221 1916.5 Q 1222.5 1911 1220 1909.5 L 1221 1906.5 L 1222 1878.5 L 1221 1877.5 L 1221 1867.5 L 1220 1866.5 L 1221 1863.5 L 1221 1861.5 L 1222 1848.5 L 1228 1838.5 L 1245 1820.5 L 1248 1813.5 L 1249 1804.5 L 1249 1802.5 L 1248 1800.5 L 1248 1766.5 Q 1245.4 1765.1 1246 1760.5 L 1236 1747.5 L 1232 1733.5 L 1225 1723.5 L 1223 1716.5 L 1222 1705.5 L 1216 1694.5 L 1214 1684.5 Q 1216.3 1683.3 1215 1678.5 L 1214 1673.5 L 1213 1663.5 L 1211 1659.5 L 1211 1657.5 L 1209 1639.5 L 1206 1627.5 L 1206 1625.5 L 1205 1620.5 L 1206 1618.5 L 1204 1612.5 L 1205 1610.5 L 1203 1602.5 L 1203 1600.5 L 1203 1591.5 L 1201 1583.5 L 1202 1580.5 L 1201 1579.5 L 1201 1567.5 L 1199 1556.5 L 1200 1551.5 L 1199 1550.5 L 1199 1538.5 L 1198 1537.5 L 1199 1536.5 L 1199 1523.5 L 1198 1522.5 L 1198 1484.5 L 1199 1481.5 L 1199 1479.5 L 1199 1470.5 L 1198 1469.5 L 1199 1468.5 L 1201 1436.5 L 1201 1434.5 Q 1199.3 1428.3 1202 1426.5 L 1202 1424.5 L 1203 1406.5 L 1205 1396.5 L 1204 1394.5 L 1206 1388.5 L 1206 1380.5 L 1210 1360.5 L 1210 1358.5 L 1218 1313.5 L 1220 1309.5 L 1220 1307.5 L 1224 1288.5 L 1230 1269.5 L 1230 1265.5 L 1245 1220.5 L 1245 1217.5 L 1250 1206.5 L 1250 1203.5 L 1252 1201.5 L 1252 1198.5 Q 1257.7 1190.3 1260 1178.5 L 1275 1144.5 L 1303 1090.5 Q 1355.4 998.9 1430.5 930 L 1509.5 864 Q 1546.8 835.3 1588.5 811 L 1633.5 787 L 1680.5 766 L 1700.5 759 L 1705.5 756 L 1708.5 756 L 1750.5 741 L 1790.5 730 L 1792.5 730 L 1813.5 726 L 1817.5 724 L 1819.5 724 L 1822.5 723 L 1824.5 723 L 1852.5 718 L 1866.5 717 L 1873.5 715 L 1875.5 715 Q 1881 716.5 1882.5 714 L 1884.5 714 Q 1890 715.5 1891.5 713 L 1893.5 714 L 1894.5 713 L 1905.5 713 L 1915.5 711 Z " /></svg>